<svg id="Layer_1" data-name="Layer 1" xmlns="http://www.w3.org/2000/svg" viewBox="0 0 195.03 34"><title>logo</title><path d="M8.47,1.79a9.26,9.26,0,0,1,2.8.42,7.4,7.4,0,0,1,1.93.84l.59.42,1-1.37H15l.56,6.72H15.3a9.68,9.68,0,0,0-2.07-4.65A5.71,5.71,0,0,0,8.47,2,4.3,4.3,0,0,0,5.28,3.19,4,4,0,0,0,4.09,6.13a4,4,0,0,0,1.28,3,10,10,0,0,0,3.08,2c1.2.52,2.41,1.07,3.61,1.65a8.87,8.87,0,0,1,3.08,2.47,6.09,6.09,0,0,1,1.28,3.94A6.08,6.08,0,0,1,14,24.3a9.33,9.33,0,0,1-5.82,1.82A11.15,11.15,0,0,1,5,25.65a8.63,8.63,0,0,1-2.24-1l-.67-.46L1,25.6H.84L.49,18.31H.7a9.2,9.2,0,0,0,2.2,5.4,6.69,6.69,0,0,0,5.32,2.2,5.58,5.58,0,0,0,4-1.37,4.87,4.87,0,0,0,1.42-3.67,4.7,4.7,0,0,0-.9-2.87,6,6,0,0,0-2.22-1.89L7.7,14.69c-1-.5-2-1-2.87-1.47A6.2,6.2,0,0,1,2.6,11.15,5.64,5.64,0,0,1,1.71,8,5.7,5.7,0,0,1,3.64,3.52,6.91,6.91,0,0,1,8.47,1.79Z" transform="translate(-0.49)"/><path d="M26.13,8.68a6.29,6.29,0,0,1,5.15,2.37,9.6,9.6,0,0,1,1.93,6.25A9.15,9.15,0,0,1,31,23.6a7.16,7.16,0,0,1-5.57,2.52,5.44,5.44,0,0,1-4.48-2.38v6.69a5.49,5.49,0,0,0,.4,2.71c.27.36,1,.58,2.26.65V34H15.45v-.21c1.12-.09,1.82-.33,2.09-.7a5.31,5.31,0,0,0,.4-2.63V13.06a3.73,3.73,0,0,0-.47-2.28,2.91,2.91,0,0,0-2.09-.52v-.21a10.94,10.94,0,0,0,2.37-.39c.92-.23,1.68-.45,2.29-.66l.88-.32v2.91A5.91,5.91,0,0,1,26.13,8.68ZM25,25.84a3.89,3.89,0,0,0,3.8-2.21,14.69,14.69,0,0,0,1.1-6.37,15.39,15.39,0,0,0-1-6A3.39,3.39,0,0,0,25.57,9a4.32,4.32,0,0,0-3.32,1.44A6.42,6.42,0,0,0,20.92,15v5.67A5.88,5.88,0,0,0,22,24.54,3.66,3.66,0,0,0,25,25.84Z" transform="translate(-0.49)"/><path d="M49.21,23.85l.18,0a1.37,1.37,0,0,0-.07.24,2.93,2.93,0,0,1-.26.53,4.06,4.06,0,0,1-.51.67,3.13,3.13,0,0,1-2,.77c-1.82,0-2.8-1.08-2.94-3.22a5.28,5.28,0,0,1-2.21,2.41,6.49,6.49,0,0,1-3.29.84,6,6,0,0,1-3.71-1,3.37,3.37,0,0,1-1.33-2.84,2.67,2.67,0,0,1,1.21-2.36,14.3,14.3,0,0,1,3.83-1.6l5.43-1.57V14.08a7.1,7.1,0,0,0-.81-3.87A3.1,3.1,0,0,0,39.93,9a3,3,0,0,0-3.18,2.87c-.07.42-.13.72-.18.91a6.55,6.55,0,0,1-.24.7,1.27,1.27,0,0,1-.46.6,1.37,1.37,0,0,1-.7.17,1.16,1.16,0,0,1-1-.44,1.52,1.52,0,0,1-.37-1A3.54,3.54,0,0,1,35.49,10a8.31,8.31,0,0,1,5.07-1.26q6,0,6,4.76v9.59a2.72,2.72,0,0,0,.28,1.47,1.06,1.06,0,0,0,1,.43,1.4,1.4,0,0,0,.85-.28,1.35,1.35,0,0,0,.48-.57ZM39.3,25.46a4,4,0,0,0,3.05-1.26,4.62,4.62,0,0,0,1.19-3.3V17l-4,1.23c-2.21.65-3.32,2-3.32,4.06S37.23,25.46,39.3,25.46Z" transform="translate(-0.49)"/><path d="M53.7,8.65v4.59A8.22,8.22,0,0,1,55.4,10a3.59,3.59,0,0,1,2.81-1.3,2.67,2.67,0,0,1,1.53.44,1.42,1.42,0,0,1,.65,1.24A1.58,1.58,0,0,1,60,11.43a1.17,1.17,0,0,1-.92.41,1.76,1.76,0,0,1-1.43-1c-.42-.68-.88-1-1.37-1s-1.15.52-1.64,1.56a10.88,10.88,0,0,0-.74,4.5v6a6.09,6.09,0,0,0,.41,2.86c.26.38,1,.61,2.25.68v.18H48.48v-.18c1.14-.09,1.84-.34,2.1-.73A6.08,6.08,0,0,0,51,21.92V13.06a3.79,3.79,0,0,0-.46-2.29,2.93,2.93,0,0,0-2.1-.51v-.21a10,10,0,0,0,2.29-.39Q52,9.32,52.86,9Z" transform="translate(-0.49)"/><path d="M64.56,5.08V9.21h4.65v.24H64.56V22c0,2.12.77,3.19,2.31,3.19a3.66,3.66,0,0,0,2.55-1.12l.32-.35.1.17a6,6,0,0,1-.5.61,6.51,6.51,0,0,1-1.48,1,4.83,4.83,0,0,1-2.39.63q-3.88,0-3.89-4V9.45H59.76V9.28a6.38,6.38,0,0,0,2.73-1.52,6.55,6.55,0,0,0,1.89-2.68Z" transform="translate(-0.49)"/><path d="M85.59,23.85l.18,0c0,.07,0,.15-.07.24a2.93,2.93,0,0,1-.26.53,4.06,4.06,0,0,1-.51.67,3.13,3.13,0,0,1-2,.77c-1.82,0-2.8-1.08-2.94-3.22a5.28,5.28,0,0,1-2.21,2.41,6.49,6.49,0,0,1-3.29.84,6.06,6.06,0,0,1-3.71-1,3.37,3.37,0,0,1-1.33-2.84,2.67,2.67,0,0,1,1.21-2.36,14.3,14.3,0,0,1,3.83-1.6l5.43-1.57V14.08a7.21,7.21,0,0,0-.8-3.87A3.13,3.13,0,0,0,76.31,9a3,3,0,0,0-3.18,2.87c-.07.42-.13.72-.18.91a4.88,4.88,0,0,1-.24.7,1.27,1.27,0,0,1-.46.6,1.37,1.37,0,0,1-.7.17,1.16,1.16,0,0,1-1-.44,1.52,1.52,0,0,1-.37-1A3.54,3.54,0,0,1,71.87,10a8.31,8.31,0,0,1,5.07-1.26q6,0,6,4.76v9.59a2.72,2.72,0,0,0,.28,1.47,1.06,1.06,0,0,0,1,.43,1.45,1.45,0,0,0,.86-.28,1.4,1.4,0,0,0,.47-.57Zm-9.91,1.61a4,4,0,0,0,3-1.26,4.62,4.62,0,0,0,1.19-3.3V17l-4,1.23c-2.21.65-3.32,2-3.32,4.06S73.61,25.46,75.68,25.46Z" transform="translate(-0.49)"/><path d="M100.05,15H97.53v6.93A6,6,0,0,0,98,24.79q.42.6,2.28.6v.21h-9v-.18c1.42-.07,2.27-.27,2.55-.59s.42-1.3.42-2.91V6c0-1.61-.14-2.58-.44-2.91s-1.13-.52-2.53-.59V2.31H100a12.3,12.3,0,0,1,6.77,1.59,5.12,5.12,0,0,1,2.44,4.54,5.49,5.49,0,0,1-2.63,4.78A11.45,11.45,0,0,1,100.05,15Zm0-12.47H97.53V14.74h2.35a5.26,5.26,0,0,0,4.27-1.7,6.76,6.76,0,0,0,1.44-4.53Q105.59,2.52,100,2.52Z" transform="translate(-0.49)"/><path d="M113.26,0V21.92a6.27,6.27,0,0,0,.38,2.77c.26.39,1,.64,2.07.73v.18H108v-.18c1-.07,1.7-.3,1.94-.68a6.45,6.45,0,0,0,.37-2.82V4.48a4.45,4.45,0,0,0-.42-2.4q-.42-.54-2.1-.54V1.4a11.15,11.15,0,0,0,2.4-.38,16.68,16.68,0,0,0,2.19-.71Z" transform="translate(-0.49)"/><path d="M130.84,23.85l.17,0c0,.07,0,.15-.07.24a2.36,2.36,0,0,1-.26.53,3.2,3.2,0,0,1-.51.67,2.76,2.76,0,0,1-.82.52,2.85,2.85,0,0,1-1.17.25c-1.82,0-2.8-1.08-2.94-3.22A5.28,5.28,0,0,1,123,25.28a6.52,6.52,0,0,1-3.29.84,6,6,0,0,1-3.71-1,3.37,3.37,0,0,1-1.33-2.84,2.68,2.68,0,0,1,1.2-2.36,14.54,14.54,0,0,1,3.84-1.6l5.43-1.57V14.08a7.1,7.1,0,0,0-.81-3.87A3.11,3.11,0,0,0,121.56,9a3,3,0,0,0-3.19,2.87c-.07.42-.13.72-.17.91a5.11,5.11,0,0,1-.25.7,1.32,1.32,0,0,1-.45.6,1.37,1.37,0,0,1-.7.17,1.19,1.19,0,0,1-1-.44,1.56,1.56,0,0,1-.36-1,3.53,3.53,0,0,1,1.64-2.8,8.35,8.35,0,0,1,5.08-1.26q6,0,5.95,4.76v9.59a2.82,2.82,0,0,0,.28,1.47,1.08,1.08,0,0,0,1,.43,1.41,1.41,0,0,0,.86-.28,1.32,1.32,0,0,0,.47-.57Zm-9.91,1.61a4,4,0,0,0,3-1.26,4.62,4.62,0,0,0,1.19-3.3V17l-4,1.23c-2.22.65-3.33,2-3.33,4.06S118.85,25.46,120.93,25.46Z" transform="translate(-0.49)"/><path d="M138.59,25.67a5.47,5.47,0,0,0,3.4-1,5.6,5.6,0,0,0,1.82-2.29H144a6.05,6.05,0,0,1-6,3.74,7.8,7.8,0,0,1-5.94-2.33,8.62,8.62,0,0,1-2.22-6.21,9.24,9.24,0,0,1,2.24-6.32,7.08,7.08,0,0,1,5.57-2.58,6.16,6.16,0,0,1,4.65,1.77,7.27,7.27,0,0,1,1.82,5H133.23c0,.88-.07,1.6-.07,2.13Q133.16,25.67,138.59,25.67Zm-.94-16.81q-3.85,0-4.38,6.34h7.42a6,6,0,0,0,.32-2.1Q141,8.86,137.65,8.86Z" transform="translate(-0.49)"/><path d="M149.53,8.68a7.59,7.59,0,0,1,2,.27,6.23,6.23,0,0,1,1.4.5l.46.25.73-.63h.14l.42,4.31h-.21A6.07,6.07,0,0,0,153,10.21a4.21,4.21,0,0,0-3.31-1.39h-.14a3.56,3.56,0,0,0-2.31.77,2.75,2.75,0,0,0-.84,2.18,2.82,2.82,0,0,0,.93,2.11,7.68,7.68,0,0,0,2.24,1.49q1.3.6,2.64,1.26a6.78,6.78,0,0,1,2.26,1.82,4.29,4.29,0,0,1,.93,2.77,4.61,4.61,0,0,1-1.51,3.59A5.55,5.55,0,0,1,150,26.16a7.53,7.53,0,0,1-2.24-.35,7.92,7.92,0,0,1-1.68-.7l-.53-.32L144.66,26h-.14l-.35-5.11h.21a8.28,8.28,0,0,0,2,3.59A4.79,4.79,0,0,0,150,26a3.73,3.73,0,0,0,2.57-.79,2.82,2.82,0,0,0,.9-2.25,2.78,2.78,0,0,0-.91-2,8.22,8.22,0,0,0-2.21-1.48c-.86-.41-1.73-.85-2.59-1.32a6.62,6.62,0,0,1-2.21-1.91,4.56,4.56,0,0,1-.91-2.85A4.32,4.32,0,0,1,146.08,10,5,5,0,0,1,149.53,8.68Z" transform="translate(-0.49)"/><path d="M164.24,25.67a5.47,5.47,0,0,0,3.4-1,5.6,5.6,0,0,0,1.82-2.29h.21a6.05,6.05,0,0,1-6,3.74,7.79,7.79,0,0,1-5.93-2.33,8.62,8.62,0,0,1-2.22-6.21,9.24,9.24,0,0,1,2.24-6.32,7.07,7.07,0,0,1,5.56-2.58A6.19,6.19,0,0,1,168,10.45a7.31,7.31,0,0,1,1.82,5H158.88c0,.88-.07,1.6-.07,2.13Q158.81,25.67,164.24,25.67Zm-1-16.81q-3.84,0-4.37,6.34h7.42a6,6,0,0,0,.31-2.1Q166.65,8.86,163.29,8.86Z" transform="translate(-0.49)"/><path d="M185,21.92a6.27,6.27,0,0,0,.38,2.77c.26.39,1,.64,2.11.73v.18h-7.74v-.18c1.05-.07,1.69-.3,1.92-.68a6.72,6.72,0,0,0,.35-2.82V14.64a7.8,7.8,0,0,0-.8-4.05,2.86,2.86,0,0,0-2.59-1.24,4.16,4.16,0,0,0-3,1.26,4.83,4.83,0,0,0-1.26,3.57v7.74a6.27,6.27,0,0,0,.38,2.77c.26.39,1,.64,2.07.73v.18H169v-.18c1.05-.07,1.7-.3,1.95-.68a6.66,6.66,0,0,0,.36-2.82V13.2a3.94,3.94,0,0,0-.47-2.35,2.76,2.76,0,0,0-2.08-.56v-.21a11.51,11.51,0,0,0,2.36-.38,20.26,20.26,0,0,0,2.29-.7l.88-.32v3.26A6.09,6.09,0,0,1,180,8.68a5.18,5.18,0,0,1,3.74,1.25,4.82,4.82,0,0,1,1.3,3.66Z" transform="translate(-0.49)"/><path d="M190.23,5.08V9.21h4.65v.24h-4.65V22c0,2.12.77,3.19,2.31,3.19a3.66,3.66,0,0,0,2.55-1.12l.32-.35.1.17a6,6,0,0,1-.5.61,6.63,6.63,0,0,1-1.47,1,4.89,4.89,0,0,1-2.4.63q-3.88,0-3.89-4V9.45h-1.82V9.28a6.38,6.38,0,0,0,2.73-1.52,6.55,6.55,0,0,0,1.89-2.68Z" transform="translate(-0.49)"/></svg>